<?xml version="1.0" encoding="utf-8"?>
<!-- Generator: Adobe Illustrator 23.0.1, SVG Export Plug-In . SVG Version: 6.00 Build 0)  -->
<svg version="1.1" id="Layer_1" xmlns="http://www.w3.org/2000/svg" xmlns:xlink="http://www.w3.org/1999/xlink" x="0px" y="0px"
	 viewBox="0 0 300 300" style="enable-background:new 0 0 300 300;" xml:space="preserve">
<style type="text/css">
	.st0{fill:none;}
	.st1{fill:#0F9D58;}
</style>
<g>
	<title>background</title>
	<rect id="canvas_background" x="137" y="137" class="st0" width="582" height="402"/>
</g>
<g>
	<title>Layer 1</title>
	<path id="svg_1" class="st1" d="M279.7,132.3c-24.9-14.5-76.3-4.1-107,4.1c22.8-23.8,58.6-65.8,58.6-96c0-24.6-15.8-40.5-40.3-40.5
		C177.2,0,160,9.6,150,18.2C140,9.6,122.8,0,109.1,0C84.6,0,68.8,15.9,68.8,40.5c0,30.2,35.8,72.2,58.6,96
		c-30.8-8.2-82.1-18.6-107-4.1c-20.4,11.9-26,33-14.2,53.6c6.6,11.5,22.7,21.3,34.6,25.6c-2.2,12.5-1.9,31.5,4.6,43
		c5.8,10.1,13.9,16.8,23.3,19.4c2.8,0.8,5.7,1.1,8.7,1.1c7,0,14.3-2.1,21.2-6.1c21.3-12.4,37.2-50,46.9-79.5
		c1.2,13.3,3,23.6,4.7,33.5c3.2,18.2,6.2,35.4,6.2,70.8c0,3.5,2.8,6.2,6.2,6.2c3.5,0,6.2-2.8,6.2-6.2c0-36.5-3.2-55-6.3-72.9
		c-1-5.5-1.9-11-2.7-16.9c9.8,26.2,23.9,54.5,41.8,64.9c6.9,4,14.2,6.1,21.2,6.1c3,0,5.9-0.4,8.7-1.1c9.5-2.5,17.5-9.2,23.3-19.4
		c6.6-11.5,6.9-30.5,4.6-43c11.9-4.3,28-14.1,34.6-25.6C305.7,165.3,300.1,144.3,279.7,132.3z"/>
</g>
</svg>
