<svg width="24" height="24" xmlns="http://www.w3.org/2000/svg">

 <g>
  <title>background</title>
  <rect fill="none" id="canvas_background" height="402" width="582" y="-1" x="-1"/>
 </g>
 <g>
  <title>Layer 1</title>
  <path id="svg_1" fill="#326adf" d="m22.37271,10.58691c-1.98949,-1.15789 -6.10075,-0.33032 -8.561,0.32898c1.82581,-1.90069 4.68808,-5.2641 4.68808,-7.67761c0,-1.96728 -1.26656,-3.23828 -3.22695,-3.23828c-1.09469,0 -2.47111,0.76855 -3.27284,1.45264c-0.80124,-0.68409 -2.17766,-1.45264 -3.27284,-1.45264c-1.96039,0 -3.22695,1.271 -3.22695,3.23828c0,2.41321 2.86166,5.77619 4.68747,7.677c-2.46025,-0.65936 -6.57083,-1.48645 -8.5604,-0.32837c-1.6352,0.95362 -2.08245,2.63623 -1.13912,4.28663c0.5244,0.91699 1.8144,1.70019 2.76651,2.04589c-0.17968,1.00391 -0.15331,2.52393 0.3706,3.44141c0.46385,0.81006 1.10885,1.3457 1.86566,1.54834c0.2246,0.06006 0.45751,0.08984 0.69431,0.08984c0.56053,0 1.14401,-0.16601 1.69722,-0.48828c1.70239,-0.99255 2.97567,-4.00036 3.74865,-6.3573c0.09809,1.06427 0.23761,1.8855 0.37621,2.68201c0.25341,1.45703 0.49266,2.83252 0.49266,5.66455c0,0.27637 0.22363,0.5 0.49999,0.5c0.27636,0 0.49998,-0.22363 0.49998,-0.5c0,-2.91797 -0.2578,-4.40137 -0.50731,-5.83545c-0.07678,-0.44134 -0.15124,-0.8797 -0.21917,-1.34888c0.78324,2.09961 1.91333,4.3609 3.34407,5.19507c0.55321,0.32227 1.13669,0.48828 1.69722,0.48828c0.2368,0 0.46971,-0.02978 0.69431,-0.08984c0.75681,-0.20264 1.40181,-0.73828 1.86566,-1.54883c0.5244,-0.91699 0.55028,-2.43701 0.37059,-3.44092c0.95212,-0.3457 2.24212,-1.1289 2.76652,-2.04589c0.94333,-1.6504 0.49608,-3.33301 -1.13913,-4.28663z"/>
 </g>
</svg>