<svg id="Layer_1" data-name="Layer 1" xmlns="http://www.w3.org/2000/svg" viewBox="0 0 372.85 512.6"><defs><style>.cls-1{fill:#326ADF;}</style></defs><title>icon-blue</title><path class="cls-1" d="M191.63,504.13c11.81-12.31,22.87-23.38,33.42-34.92,31.62-34.58,60.43-71.33,84.64-111.52,21.24-35.25,38.62-72.17,47.71-112.59,10-44.26,8.33-87.47-13.35-128.3-25.61-48.21-65.52-78.25-118.87-89.5-32.41-6.83-64.4-3.72-95.35,8.45-.62.24-1.26.42-1.88.63-5,1.64-8.78,0-10.44-4.66a7.17,7.17,0,0,1,4.95-9.48c13.11-3.95,26.15-8.71,39.59-10.93C196.68,5.59,230.7,9,263.05,23c58.64,25.39,95.65,69.44,110.88,131.51,5.08,20.7,5.24,41.76,3.25,62.94-4.25,45.21-20.16,86.62-41.52,126.09-35.67,65.91-83,122.8-137,174.29-4.71,4.49-8.45,4.54-13,.18C132,467.2,85.33,410.91,49.59,346,30.86,312,16.38,276.35,9.43,238,.57,189.08,6.18,142.45,32.17,99.21c3.21-5.35,7.7-7,11.85-4.45,3.86,2.4,4.37,7,1.14,12.31C26,138.84,18.55,173.43,21.23,210.13c2.64,36.13,13.66,70.08,29,102.69,20.62,43.88,47.3,83.95,78.41,121,18.3,21.78,38.09,42.31,57.2,63.43C187.61,499.2,189.26,501.3,191.63,504.13Z" transform="translate(-5.52 -8.67)"/><path class="cls-1" d="M192.14,120c38.46-.85,75.13,31,75.39,75.22.25,41.44-34.17,75.84-75.68,75.79-41.25-.05-75.44-34.07-75.39-75.58C116.51,151.18,153.19,119,192.14,120Zm60,75.43c.82-31.46-25.27-60-58.84-60.35-34.31-.39-60.87,26.12-61.41,59.86-.49,30.35,23.61,60.84,60.67,60.66C228.45,255.41,252.82,225.45,252.1,195.42Z" transform="translate(-5.52 -8.67)"/><path class="cls-1" d="M68.43,58.89a7.47,7.47,0,0,1,7.38,7.17c0,3.88-3.79,7.59-7.74,7.49-4.32-.12-7.24-3.35-7.06-7.83A6.88,6.88,0,0,1,68.43,58.89Z" transform="translate(-5.52 -8.67)"/></svg>