<svg id="Layer_1" data-name="Layer 1" xmlns="http://www.w3.org/2000/svg" viewBox="0 0 372.85 512.6"><defs><style>.cls-1{fill:#fff;}</style></defs><title>icon</title><path class="cls-1" d="M186.11,502.13c11.82-12.31,22.87-23.38,33.42-34.92,31.62-34.58,60.43-71.33,84.65-111.52,21.23-35.25,38.61-72.17,47.71-112.59,10-44.26,8.32-87.47-13.36-128.3C312.93,66.59,273,36.55,219.66,25.3c-32.41-6.83-64.39-3.72-95.35,8.45-.61.24-1.25.42-1.88.63-5,1.64-8.78,0-10.44-4.66a7.18,7.18,0,0,1,5-9.48c13.12-3.95,26.16-8.71,39.59-10.93C191.16,3.59,225.19,7,257.54,21c58.63,25.39,95.64,69.44,110.87,131.51,5.08,20.7,5.24,41.76,3.25,62.94-4.25,45.21-20.15,86.62-41.51,126.09-35.67,65.91-83,122.8-137,174.29-4.71,4.49-8.45,4.54-13.05.18-53.54-50.84-100.24-107.13-136-172C25.34,310,10.86,274.35,3.91,236-4.94,187.08.66,140.45,26.65,97.21c3.21-5.35,7.71-7,11.85-4.45,3.86,2.4,4.37,7,1.15,12.31C20.5,136.84,13,171.43,15.71,208.13c2.64,36.13,13.66,70.08,29,102.69,20.62,43.88,47.3,83.95,78.41,121,18.3,21.78,38.1,42.31,57.2,63.43C182.09,497.2,183.74,499.3,186.11,502.13Z" transform="translate(0 -6.67)"/><path class="cls-1" d="M186.62,118c38.47-.85,75.13,31,75.4,75.22.24,41.44-34.17,75.84-75.69,75.79-41.25-.05-75.43-34.07-75.39-75.58C111,149.18,147.68,117,186.62,118Zm60,75.43c.82-31.46-25.27-60-58.83-60.35-34.31-.39-60.88,26.12-61.42,59.86-.48,30.35,23.61,60.84,60.67,60.66C222.93,253.41,247.3,223.45,246.58,193.42Z" transform="translate(0 -6.67)"/><path class="cls-1" d="M62.91,56.89a7.47,7.47,0,0,1,7.38,7.17c0,3.88-3.79,7.59-7.73,7.49-4.33-.12-7.25-3.35-7.07-7.83A6.89,6.89,0,0,1,62.91,56.89Z" transform="translate(0 -6.67)"/></svg>