<svg id="Layer_1" data-name="Layer 1" xmlns="http://www.w3.org/2000/svg" viewBox="0 0 307.28 61.68"><defs><style>.cls-1{fill:#326ADF;}</style></defs><title>logo-blue</title><path class="cls-1" d="M66.08,42a21,21,0,0,1-1.64,8.72,16.39,16.39,0,0,1-4.28,5.84,16.58,16.58,0,0,1-6,3.24,23.26,23.26,0,0,1-6.68,1A22.06,22.06,0,0,1,41.4,60a14,14,0,0,1-5-2.52,16.83,16.83,0,0,1-5,2.48A21.63,21.63,0,0,1,25,60.8,17.82,17.82,0,0,1,21,60.28a20.35,20.35,0,0,1-8.44-4.36A19.57,19.57,0,0,1,9,52Q7.36,49.6,6.2,47.68A32,32,0,0,1,4.28,44a18.48,18.48,0,0,1-1.12-3.4,16.16,16.16,0,0,1-.36-3.48V0h60l3.28,5.76ZM60,2.72H44.72V34.24c0,1.81-.8,2.72-2.4,2.72s-2.4-.91-2.4-2.72V2.72H25.84V34.24c0,1.81-.83,2.72-2.48,2.72S21,36.05,21,34.24V2.72H5.6v34.4a14.34,14.34,0,0,0,1.64,7A15.39,15.39,0,0,0,11.32,49a16.93,16.93,0,0,0,5.24,2.76,17.26,17.26,0,0,0,5,.88q7.51,0,11.44-4.4A8.94,8.94,0,0,0,37.6,51.6a19.89,19.89,0,0,0,12.2.16A14.65,14.65,0,0,0,54.92,49a14,14,0,0,0,3.68-5A18.06,18.06,0,0,0,60,36.48Z" transform="translate(-2.8 0.88)"/><path class="cls-1" d="M98.32,59.92l-.48-.8A18.38,18.38,0,0,1,94,60.36a23.26,23.26,0,0,1-4.68.44,22.8,22.8,0,0,1-9-1.76,15.9,15.9,0,0,1-7-5.84q-1.68-2.56-3-4.68a27.35,27.35,0,0,1-2.08-4.16,24.21,24.21,0,0,1-1.2-4.08,22.83,22.83,0,0,1-.4-4.44,22.89,22.89,0,0,1,1.44-8.64,13.73,13.73,0,0,1,4.16-5.68V0H96.56a18.06,18.06,0,0,1,10.2,3.24q4.84,3.24,9.16,11A26.8,26.8,0,0,1,118.28,20a26.48,26.48,0,0,1,.92,7.28V59.92ZM113.2,21.68a22.84,22.84,0,0,0-1.4-8.36,17.69,17.69,0,0,0-3.68-5.92,14.48,14.48,0,0,0-5.32-3.52,17.46,17.46,0,0,0-6.24-1.16H75.12V18.4h14.8a5.69,5.69,0,0,1,4.6,1.76Q96,21.92,96,27.2a27.27,27.27,0,0,1-.4,5.16,7.16,7.16,0,0,1-1.32,3.16,4.72,4.72,0,0,1-2.4,1.56,13.08,13.08,0,0,1-3.64.44,2.41,2.41,0,0,1-2.64-2.4c0-1.49.88-2.24,2.64-2.24h5.12a7.58,7.58,0,0,0,.56-2.2,29.43,29.43,0,0,0,.16-3.48,19.61,19.61,0,0,0-.24-3.4,7.33,7.33,0,0,0-.64-2.08,2.74,2.74,0,0,0-.84-1,4.09,4.09,0,0,0-.92-.44H87.52A32.59,32.59,0,0,0,80.2,21a14.65,14.65,0,0,0-5.68,2.56,12,12,0,0,0-3.68,4.8,18.59,18.59,0,0,0-1.32,7.48,20.52,20.52,0,0,0,1.36,8,13.21,13.21,0,0,0,8.88,8,22.15,22.15,0,0,0,6.08.84,18,18,0,0,0,7.4-1.32,8.78,8.78,0,0,0,4.2-3.56v4H113.2Z" transform="translate(-2.8 0.88)"/><path class="cls-1" d="M125.84,59.92l-3.68-5.36V0h22.56l3.2,5.76V59.92Zm16.08-57.2h-17v49h17Z" transform="translate(-2.8 0.88)"/><path class="cls-1" d="M155.2,59.92l-3.68-5.36V0h20.64A30.77,30.77,0,0,1,189,4.64a31.23,31.23,0,0,1,11.44,13.6q1.52,3.36,2.76,6.88a22.9,22.9,0,0,1,1.24,7.6,28.59,28.59,0,0,1-2.16,11.36,24.45,24.45,0,0,1-6,8.56A26.7,26.7,0,0,1,187,58a35.46,35.46,0,0,1-11.76,1.88Zm16.64-8.16A32,32,0,0,0,182.56,50a24.76,24.76,0,0,0,8.4-4.88,21.93,21.93,0,0,0,5.48-7.72,26,26,0,0,0,2-10.32,25,25,0,0,0-1.88-9.76,22.46,22.46,0,0,0-5.32-7.72,24.92,24.92,0,0,0-8.28-5.08,30,30,0,0,0-10.76-1.84H154.24v49ZM171.12,36V18.4h1a12.68,12.68,0,0,1,4.52.72,7.92,7.92,0,0,1,3,1.92,7.51,7.51,0,0,1,1.64,2.8,11,11,0,0,1,.52,3.36,11.27,11.27,0,0,1-.52,3.44,7.22,7.22,0,0,1-1.68,2.8,7.85,7.85,0,0,1-3.08,1.88,14.36,14.36,0,0,1-4.72.68Z" transform="translate(-2.8 0.88)"/><path class="cls-1" d="M255,16a28.13,28.13,0,0,1,3.2,7.64,36.37,36.37,0,0,1,1.12,9.16,35.86,35.86,0,0,1-1.8,11.76,24.16,24.16,0,0,1-5.2,8.8A22.64,22.64,0,0,1,244,58.88a29.76,29.76,0,0,1-11,1.92,27.56,27.56,0,0,1-13-2.88A25.14,25.14,0,0,1,211,49.84q-2.09-3-3.6-5.8a36.69,36.69,0,0,1-2.48-5.44,32.51,32.51,0,0,1-1.44-5.48,34.52,34.52,0,0,1-.48-5.84A34.78,34.78,0,0,1,204.8,15.6a24.46,24.46,0,0,1,5.28-8.84,23.4,23.4,0,0,1,8.36-5.64,29.49,29.49,0,0,1,11.16-2,26.52,26.52,0,0,1,14.72,4Q250.56,7.19,255,16ZM229.6,52.64a26.69,26.69,0,0,0,9.88-1.72,20,20,0,0,0,7.4-5,22.61,22.61,0,0,0,4.68-8,32.38,32.38,0,0,0,1.64-10.64,31.87,31.87,0,0,0-1.64-10.48,22.61,22.61,0,0,0-4.68-8,20.76,20.76,0,0,0-7.4-5.08,25.7,25.7,0,0,0-9.88-1.8,26.3,26.3,0,0,0-10,1.8,20.89,20.89,0,0,0-7.52,5.08,22,22,0,0,0-4.72,8,31.61,31.61,0,0,0-1.64,10.48,32.12,32.12,0,0,0,1.64,10.64,22,22,0,0,0,4.72,8,20.1,20.1,0,0,0,7.52,5A27.31,27.31,0,0,0,229.6,52.64Zm0-15.68a6.34,6.34,0,0,1-5-2.24q-2-2.23-2-7.44t1.72-7.48a6.13,6.13,0,0,1,5.24-2.28,6,6,0,0,1,5.08,2.28c1.14,1.52,1.72,4,1.72,7.48s-.64,5.95-1.92,7.44A6.16,6.16,0,0,1,229.6,37Z" transform="translate(-2.8 0.88)"/><path class="cls-1" d="M288.32,59.92a27.35,27.35,0,0,1-13.16-3.08,26.71,26.71,0,0,1-9.48-8.52,50.58,50.58,0,0,1-5.88-10.48,27.91,27.91,0,0,1-1.88-10.32,35.16,35.16,0,0,1,1.76-11.32,25.75,25.75,0,0,1,5.08-9,23.52,23.52,0,0,1,8.12-5.92,26.44,26.44,0,0,1,11-2.16A27.92,27.92,0,0,1,297.6,2.4q5.91,3.29,9.68,11.36a19.3,19.3,0,0,1,2.8,10.56q0,7.84-3.36,12.24l1.6,2.56v20.8Zm13.92-23.84h-19A4.64,4.64,0,0,1,279.44,34q-1.6-2.12-1.6-6.44c0-3.52.62-6.09,1.88-7.72a6.39,6.39,0,0,1,5.4-2.44c2.08,0,3.12.67,3.12,2a1.86,1.86,0,0,1-.76,1.64,4.8,4.8,0,0,1-2.6.52h-4a10.91,10.91,0,0,0-.88,2.64,18.87,18.87,0,0,0-.24,3.36,10.38,10.38,0,0,0,.76,4.4,5.92,5.92,0,0,0,1.88,2.4h5.52q8.64,0,12.36-4.08T304,18.8a17.7,17.7,0,0,0-1.44-7.4,14.19,14.19,0,0,0-4.08-5.28A17.58,17.58,0,0,0,292.12,3a30.86,30.86,0,0,0-8.28-1,23.78,23.78,0,0,0-9.76,1.92A20.39,20.39,0,0,0,266.8,9.2a23.72,23.72,0,0,0-4.52,8.12,32.08,32.08,0,0,0-1.56,10.2,26.76,26.76,0,0,0,1.84,10.2,21.46,21.46,0,0,0,12.72,12.4,27.33,27.33,0,0,0,9.6,1.64h17.36Z" transform="translate(-2.8 0.88)"/></svg>